<?xml version="1.0" encoding="UTF-8"?>
<svg width="100" height="32" viewBox="0 0 100 32" fill="none" xmlns="http://www.w3.org/2000/svg">
  <rect width="100" height="32" rx="4" fill="white"/>
  <circle cx="40" cy="16" r="10" fill="#EB001B"/>
  <circle cx="60" cy="16" r="10" fill="#F79E1B"/>
  <path fill-rule="evenodd" clip-rule="evenodd" d="M50 23.5C53.5 21 56 18.5 56 16C56 13.5 53.5 11 50 8.5C46.5 11 44 13.5 44 16C44 18.5 46.5 21 50 23.5Z" fill="#FF5F00"/>
  <path d="M24 21.5V20.5H24.5V21.5H24ZM24 16.5V15.5H24.5V16.5H24ZM22.5 19H21.5V18.5H22.5V19ZM26.5 19H27.5V19.5H26.5V19ZM24.5 21.5V16.5H23.5V21.5H24.5ZM24 16.5C24 15.5 23 14.5 22 14.5V13.5C23.5 13.5 25 15 25 16.5H24ZM22 14.5C21 14.5 20 15.5 20 16.5H19C19 15 20.5 13.5 22 13.5V14.5ZM20 16.5C20 17.5 21 18.5 22 18.5V19.5C20.5 19.5 19 18 19 16.5H20ZM22.5 18.5C23.5 18.5 24.5 17.5 24.5 16.5H25.5C25.5 18 24 19.5 22.5 19.5V18.5ZM24.5 16.5C24.5 15.5 23.5 14.5 22.5 14.5V13.5C24 13.5 25.5 15 25.5 16.5H24.5ZM22.5 14.5C21.5 14.5 20.5 15.5 20.5 16.5H19.5C19.5 15 21 13.5 22.5 13.5V14.5ZM20.5 16.5C20.5 17.5 21.5 18.5 22.5 18.5V19.5C21 19.5 19.5 18 19.5 16.5H20.5ZM22.5 18.5C23.5 18.5 24.5 17.5 24.5 16.5H25.5C25.5 18 24 19.5 22.5 19.5V18.5ZM26.5 19C26.5 20 25.5 21 24.5 21V20C25 20 25.5 19.5 25.5 19H26.5ZM24.5 21C23.5 21 22.5 20 22.5 19H23.5C23.5 19.5 24 20 24.5 20V21ZM22.5 19C22.5 18 23.5 17 24.5 17V18C24 18 23.5 18.5 23.5 19H22.5ZM24.5 17C25.5 17 26.5 18 26.5 19H25.5C25.5 18.5 25 18 24.5 18V17Z" fill="#000000"/>
  <path d="M29 21.5V13.5H30V21.5H29Z" fill="#000000"/>
  <path d="M32 21.5V13.5H33V17L36 13.5H37.5L34.5 17L38 21.5H36.5L33.5 17.5L33 18V21.5H32Z" fill="#000000"/>
  <path d="M72 21.5V13.5H73V17L76 13.5H77.5L74.5 17L78 21.5H76.5L73.5 17.5L73 18V21.5H72Z" fill="#000000"/>
  <path d="M79 21.5V13.5H80V21.5H79Z" fill="#000000"/>
  <path d="M82 21.5V13.5H83V20.5H87V21.5H82Z" fill="#000000"/>
</svg>
