<?xml version="1.0" encoding="UTF-8"?>
<svg width="100" height="32" viewBox="0 0 100 32" fill="none" xmlns="http://www.w3.org/2000/svg">
  <rect width="100" height="32" rx="4" fill="white"/>
  <path d="M36.5 13.5C36 12 34.5 11 33 11H28C27.5 11 27 11.5 27 12L24.5 25.5C24.5 26 24.5 26.5 25 26.5H28L28.5 24V23.5L29 21H31.5C34 21 36 19.5 36.5 17C37 16 37 14.5 36.5 13.5Z" fill="#253B80"/>
  <path d="M47.5 13.5C47 12 45.5 11 44 11H39C38.5 11 38 11.5 38 12L35.5 25.5C35.5 26 35.5 26.5 36 26.5H39C39.5 26.5 40 26 40 25.5L40.5 23V22.5L41 20H43.5C46 20 48 18.5 48.5 16C49 15 48.5 14 47.5 13.5Z" fill="#179BD7"/>
  <path d="M44 14.5H41.5C41 14.5 41 14.5 41 15L40.5 17.5V18L40 20C40 20.5 40.5 20.5 40.5 20.5H42.5C43 20.5 43.5 20 43.5 19.5V19L44 17V16.5L44.5 15C44.5 14.5 44.5 14.5 44 14.5Z" fill="#253B80"/>
  <path d="M33 14.5H30.5C30 14.5 30 14.5 30 15L29.5 17.5V18L29 20.5C29 21 29.5 21 29.5 21H31.5C32 21 32.5 20.5 32.5 20V19.5L33 17.5V17L33.5 15.5C33.5 15 33.5 14.5 33 14.5Z" fill="#179BD7"/>
  <path d="M57 13H54L51 21.5H54L57 13Z" fill="#253B80"/>
  <path d="M62 13H59.5L56.5 21.5H59L62 13Z" fill="#253B80"/>
  <path d="M67 13H63L60 21.5H64L67 13Z" fill="#253B80"/>
  <path d="M71 13H68.5L65.5 21.5H68L71 13Z" fill="#179BD7"/>
  <path d="M76 13H72L69 21.5H73L76 13Z" fill="#179BD7"/>
  <path d="M80 13H77.5L74.5 21.5H77L80 13Z" fill="#179BD7"/>
</svg>
