<?xml version="1.0" encoding="UTF-8"?>
<svg width="100" height="32" viewBox="0 0 100 32" fill="none" xmlns="http://www.w3.org/2000/svg">
  <rect width="100" height="32" rx="4" fill="white"/>
  <path d="M42.5 21.5H37.5L40.5 10.5H45.5L42.5 21.5Z" fill="#1434CB"/>
  <path d="M37.5 10.5L33 21.5H28L32.5 10.5H37.5Z" fill="#1434CB"/>
  <path d="M28 21.5L25.5 13L24 15.5L22 21.5H17L22 10.5H27L29.5 19L34 10.5H39L33 21.5H28Z" fill="#1434CB"/>
  <path d="M65 10.5C66.5 10.5 68.5 11 69.5 11.5L68.5 15C67.5 14.5 66 14 64.5 14C63.5 14 62.5 14.5 62.5 15.5C62.5 16.5 64 17 65.5 18C67.5 19 68.5 20 68.5 22C68.5 25 66 27 62 27C60 27 58 26.5 56.5 25.5L57.5 22C59 23 60.5 23.5 62 23.5C63.5 23.5 64 22.5 64 21.5C64 20.5 62.5 19.5 61 18.5C59 17.5 58 16 58 14.5C58 11.5 60.5 10.5 65 10.5Z" fill="#1434CB"/>
  <path d="M70 21.5L73 10.5H78L75 21.5H70Z" fill="#1434CB"/>
  <path d="M83 21.5C81.5 21.5 80.5 20.5 80.5 19C80.5 18.5 80.5 18 80.5 17.5L81.5 13H83.5L83 15H85.5L84.5 18.5H82L82 19C82 19.5 82.5 19.5 83 19.5C83.5 19.5 84.5 19.5 85 19L84.5 21.5C84 21.5 83.5 21.5 83 21.5Z" fill="#1434CB"/>
  <path d="M90.5 21.5C89 21.5 88 20.5 88 19C88 18.5 88 18 88 17.5L89 13H91L90.5 15H93L92 18.5H89.5L89.5 19C89.5 19.5 90 19.5 90.5 19.5C91 19.5 92 19.5 92.5 19L92 21.5C91.5 21.5 91 21.5 90.5 21.5Z" fill="#1434CB"/>
  <path d="M49 10.5C46 10.5 43.5 12.5 42.5 15.5C41 19.5 43.5 22.5 47 22.5C48.5 22.5 50 22 51.5 21L52.5 17.5C51.5 18.5 50 19 48.5 19C47 19 46 18 46.5 16.5C47 15 48.5 14 50 14C51 14 52 14.5 52.5 15.5L54 12C53 11 51 10.5 49 10.5Z" fill="#1434CB"/>
</svg>
