<svg xmlns="http://www.w3.org/2000/svg" version="1.1" xmlns:xlink="http://www.w3.org/1999/xlink" width="512" height="512" x="0" y="0" viewBox="0 0 512 512" style="enable-background:new 0 0 512 512" xml:space="preserve" class="hovered-paths"><g><g fill-rule="evenodd" clip-rule="evenodd"><path fill="#e6a583" d="M87.92 381.97H38.88c-.31-22.03 0-81.24 0-103.29 0-46.77 37.28-70.27 83.59-71.46l-.06-.06 5.64-19.36c12.39 5.7 25.88 7.74 38.47 7.57 9.33-.14 18.71-2.75 27.44-7.31l3.91 19.11-.03.03c46.4 1.16 83.76 24.66 83.76 71.49 0 22.05.31 81.27 0 103.29H87.92z" opacity="1" data-original="#e6a583"></path><path fill="#378f8d" d="M38.88 381.97c-.31-22.03 0-81.24 0-103.29 0-44.02 33.05-67.44 75.57-71.04l.11.6c3.49 20.95 18.79 39.43 45.95 55.47 27.16-16.04 42.46-34.53 45.92-55.47l.2-.54c42.24 3.74 74.98 27.16 74.98 70.98 0 22.05.31 81.27 0 103.29H38.88z" opacity="1" data-original="#378f8d" class=""></path><path fill="#f9c5a5" d="M234.27 81.55c-1.25 16.02.54 31.66.54 39.51 0 41.27-34.64 73.81-68.29 74.3-33.65.45-74.07-14.85-81.24-74.3-.09-.85-.2-1.67-.26-2.49 27.58-4.59 43.31-20.24 47.17-46.94 25.8 10.12 77.31 20.13 102.08 9.92z" opacity="1" data-original="#f9c5a5"></path><path fill="#8ad4bd" d="M160.06 28.12c19.59 0 21.15 11 60.32-1.13C232.29 23.3 241.5 42.04 236 68.94c-.2.96-.4 1.93-.54 2.92-.57 3.2-.94 6.46-1.19 9.69-24.77 10.2-76.28.2-102.08-9.92-3.86 26.7-19.59 42.35-47.17 46.94-.09-.77-.14-1.5-.2-2.27-4.5-56.49 35.05-88.18 75.24-88.18z" opacity="1" data-original="#8ad4bd"></path><path fill="#fb911a" d="M350.32 207.78c74.21 0 134.36 60.15 134.36 134.36S424.53 476.5 350.32 476.5s-134.36-60.15-134.36-134.36 60.15-134.36 134.36-134.36z" opacity="1" data-original="#fb911a"></path><path fill="#8ad4bd" d="M252.07 309.32h196.47L419.6 417.37H281.04z" opacity="1" data-original="#8ad4bd"></path></g><path d="M296.12 346.68c0-4.42 3.6-7.99 8.02-7.99s7.99 3.57 7.99 7.99v33.36c0 4.42-3.57 7.99-7.99 7.99s-8.02-3.57-8.02-7.99zm92.56 0c0-4.42 3.57-7.99 7.99-7.99s7.99 3.57 7.99 7.99v33.36c0 4.42-3.57 7.99-7.99 7.99s-7.99-3.57-7.99-7.99zm-46.29 0c0-4.42 3.6-7.99 8.02-7.99s7.99 3.57 7.99 7.99v33.36c0 4.42-3.57 7.99-7.99 7.99s-8.02-3.57-8.02-7.99zm-58.23-45.36 23.36-38.52c2.3-3.77 7.17-4.96 10.94-2.69s4.96 7.17 2.69 10.94l-18.37 30.27H398l-18.37-30.27c-2.27-3.77-1.05-8.67 2.69-10.94 3.77-2.27 8.67-1.08 10.94 2.69l23.36 38.52h32c5.22 0 9.27 4.93 7.6 10.49L427.4 419.44c-.96 3.57-4.2 5.92-7.71 5.92v.03H281.13c-3.86 0-7.09-2.75-7.85-6.35l-28.83-107.66c-1.36-5.07 2.49-10.03 7.71-10.03v-.03zm154.06 16.02H262.59l24.66 92.04h126.31zm-87.81-117.55c78.6 0 142.36 63.75 142.36 142.36 0 78.63-63.72 142.38-142.36 142.38-61.06 0-114.24-38.66-134.14-94.56H38.96c-4.56 0-8.14-3.63-7.97-8.59-.23-16.04-.14-50.17-.06-76.39 0-4.39.03-7.94.03-26.28 0-50.2 38.72-76.08 85.46-79.2l2.21-7.63c-23.13-13.27-37.96-37.87-41.36-71.21-3.06-29.88 4.17-55.84 22.79-75.23 15.87-16.5 37.87-25.31 60.07-25.31 21.57 0 20.83 10.74 57.97-.77 7.29-2.27 14.4.26 19.36 6.12 8.87 10.49 9.69 29.03 6.41 45.04l-.26 1.33c-2.44 13.1-1.76 27.95-1.13 39.49.23 4.03.4 7.46.4 9.72 0 29.51-16.19 56.3-39.88 71.04l1.53 7.43c23.92 1.64 47.71 9.33 64.29 25.94 23.11-16.19 51.23-25.68 81.59-25.68zM211.59 373.98c-11.79-51.73 6.07-104.51 44.59-138.56-11.54-10.77-27.33-16.61-43.34-18.96-6.66 23.73-25.54 40.48-48.08 54.06a7.983 7.983 0 0 1-8.25.08c-22.42-13.27-41.64-30.78-48.22-54.23-34.47 4.93-61.34 24.6-61.34 62.33l-.11 95.27h40.22v-78.83c0-4.42 3.57-7.99 7.99-7.99s7.99 3.57 7.99 7.99v78.83h108.55zm228.17-121.19c-49.35-49.35-129.37-49.35-178.72 0s-49.35 129.37 0 178.72 129.37 49.35 178.72 0c49.35-49.34 49.35-129.36 0-178.72zM225.94 92.21c-26.05 4.85-63.78-2.21-87.68-9.98-6.07 22.59-21.46 36.82-44.31 42.66 4.45 27.78 16.72 45.81 37.7 55.76 11.14 5.1 23.41 6.89 34.84 6.75 16.04-.23 31.46-8.87 42.26-20.64 10.89-11.85 18.14-27.86 18.14-45.69 0-2.61-.17-5.5-.34-8.9-.3-5.7-.67-12.59-.61-19.96zm-52.56-54.08c-6.8-1.73-10.94-2.41-18.71-1.79-16.04 1.28-31.58 8.19-43.09 20.15-11.96 12.44-19.16 29.79-19.05 52.21 18.65-5.56 29.03-18.11 31.83-38.13.71-5.02 6.01-8.25 10.83-6.38 21.34 8.36 66.9 18.2 91.7 11.48l1.05-6.77v.03c.09-.51.2-1.05.31-1.59 2.21-10.8 2.3-25.31-2.98-31.55-.94-1.11-1.5-1.5-2.47-1.19-28.64 8.88-39.01 6.22-49.42 3.53zm14.83 161.17c-7 2.52-14.26 3.91-21.52 4.03-10.83.14-22.31-1.22-33.34-4.9l-2.95 10.12a8.035 8.035 0 0 1-5.84 6.38c5.73 16.41 20.01 29.37 36.03 39.43 15.93-10.03 30.19-22.96 35.94-39.29-3.71-.65-6.01-3.43-6.58-7.17z" fill="#000000" opacity="1" data-original="#000000" class="hovered-path"></path></g></svg>