<?xml version="1.0" encoding="UTF-8"?>
<svg width="200px" height="200px" viewBox="0 0 200 200" version="1.1" xmlns="http://www.w3.org/2000/svg" xmlns:xlink="http://www.w3.org/1999/xlink">
    <title>Category Placeholder</title>
    <g id="Category-Placeholder" stroke="none" stroke-width="1" fill="none" fill-rule="evenodd">
        <rect id="Background" fill="#F3F4F6" x="0" y="0" width="200" height="200"></rect>
        <g id="Icon" transform="translate(50.000000, 50.000000)" fill="#9CA3AF">
            <path d="M50,0 C77.6142375,0 100,22.3857625 100,50 C100,77.6142375 77.6142375,100 50,100 C22.3857625,100 0,77.6142375 0,50 C0,22.3857625 22.3857625,0 50,0 Z M50,10 C27.90861,10 10,27.90861 10,50 C10,72.09139 27.90861,90 50,90 C72.09139,90 90,72.09139 90,50 C90,27.90861 72.09139,10 50,10 Z" id="Circle" fill-rule="nonzero"></path>
            <path d="M30,30 L70,30 C72.7614237,30 75,32.2385763 75,35 L75,65 C75,67.7614237 72.7614237,70 70,70 L30,70 C27.2385763,70 25,67.7614237 25,65 L25,35 C25,32.2385763 27.2385763,30 30,30 Z M30,40 L30,65 L70,65 L70,40 L30,40 Z" id="Folder" fill-rule="nonzero"></path>
            <circle id="Dot" cx="50" cy="50" r="10"></circle>
        </g>
        <text id="Category" font-family="Arial-BoldMT, Arial" font-size="16" font-weight="bold" fill="#6B7280">
            <tspan x="70" y="160">Category</tspan>
        </text>
    </g>
</svg>
