<svg xmlns="http://www.w3.org/2000/svg" version="1.1" xmlns:xlink="http://www.w3.org/1999/xlink" width="512" height="512" x="0" y="0" viewBox="0 0 512 512" style="enable-background:new 0 0 512 512" xml:space="preserve" class="hovered-paths"><g><path d="M512 256c0 141.385-114.615 256-256 256-33.896 0-66.247-6.583-95.859-18.547a253.916 253.916 0 0 1-23.489-10.919c-.167-.094-.345-.178-.512-.272a257.457 257.457 0 0 1-21.358-12.706 251.575 251.575 0 0 1-14.691-10.501 256.352 256.352 0 0 1-33.437-30.783c-25.673-28.181-45.129-62.119-56.205-99.652C3.647 305.601 0 281.224 0 256 0 114.615 114.615 0 256 0s256 114.615 256 256z" style="" fill="#ffd13f" data-original="#ffd13f" class=""></path><path d="M509.262 293.501c-10.742 73.216-52.475 136.349-111.449 175.668-30.375 20.25-65.348 34.179-103.006 39.905A256.827 256.827 0 0 1 256 512c-24.012 0-47.25-3.302-69.287-9.488V293.501h322.549z" style="" fill="#3b465c" data-original="#3b465c"></path><path d="M397.814 319.592V469.17a259.9 259.9 0 0 1-20.104 12.11 254.33 254.33 0 0 1-67.856 25.036 254.86 254.86 0 0 1-15.047 2.759V319.592h103.007z" style="" fill="#ffffff" data-original="#ffffff"></path><path d="M420.517 372.834 361.741 50.091c-3.127-17.173-27.747-17.173-30.875 0l-58.777 322.743 74.214-79.633 74.214 79.633z" style="" fill="#ffffff" data-original="#ffffff"></path><circle cx="245.697" cy="171.353" r="33.792" style="" fill="#e8a87c" data-original="#e8a87c" class="hovered-path"></circle><circle cx="446.349" cy="171.353" r="33.792" style="" fill="#e8a87c" data-original="#e8a87c" class="hovered-path"></circle><path d="M346.303 293.902c-55.565 0-100.608-45.043-100.608-100.608V64.144h201.217v129.149c-.001 55.564-45.044 100.609-100.609 100.609z" style="" fill="#fec495" data-original="#fec495" class=""></path><path d="M360.697 292.872a100.546 100.546 0 0 1-14.388 1.024c-55.568 0-100.613-45.035-100.613-100.603V64.144h28.787v129.149c-.001 50.678 37.469 92.599 86.214 99.579z" style="" fill="#e8a87c" data-original="#e8a87c" class="hovered-path"></path><path d="m266.951 85.975-31.139 15.672v71.311c17.198 0 31.139-13.942 31.139-31.139V85.975z" style="" fill="#253140" data-original="#253140"></path><path d="M425.656 31.121h31.139v141.838c-17.198 0-31.139-13.942-31.139-31.139V31.121z" style="" fill="#3b465c" data-original="#3b465c"></path><path d="M411.023 101.649H235.81C235.81 46.019 280.907.922 336.537.922h175.212c.001 55.629-45.096 100.727-100.726 100.727z" style="" fill="#3b465c" data-original="#3b465c"></path><path d="M383.777.921h-47.239c-55.63 0-100.727 45.098-100.727 100.727h47.24C283.05 46.018 328.147.921 383.777.921z" style="" fill="#253140" data-original="#253140"></path><path d="M321.805 161.205c0-10.387-8.42-18.807-18.807-18.807-10.387 0-18.807 8.42-18.807 18.807M408.004 161.205c0-10.387-8.42-18.807-18.807-18.807s-18.807 8.42-18.807 18.807" style="" fill="#232323" data-original="#232323"></path><path d="M362.265 179.022h-31.923c-5.467 0-9.898 4.431-9.898 9.898s4.431 9.898 9.898 9.898h31.923c5.467 0 9.898-4.431 9.898-9.898 0-5.466-4.431-9.898-9.898-9.898z" style="" fill="#e8a87c" data-original="#e8a87c" class="hovered-path"></path><path d="M299.285 209.265c0 25.968 21.051 47.018 47.018 47.018 25.968 0 47.018-21.051 47.018-47.018" style="" fill="#ffffff" data-original="#ffffff"></path><path d="M318.885 305.257h54.857v54.857h-54.857z" style="" transform="rotate(-45.001 346.31 332.691)" fill="#fb4a75" data-original="#fb4a75"></path><path d="M377.71 481.28a254.33 254.33 0 0 1-67.856 25.036l35.088-186.723 1.369-7.283 1.358 7.283L377.71 481.28z" style="" fill="#fb4a75" data-original="#fb4a75"></path><path d="M160.141 395.536v97.917a253.916 253.916 0 0 1-23.489-10.919c-.167-.094-.345-.178-.512-.272a257.457 257.457 0 0 1-15.642-9.028v-77.699l39.643.001z" style="" fill="#e89435" data-original="#e89435"></path><path d="M160.141 443.789v49.664a253.916 253.916 0 0 1-23.489-10.919v-38.745h23.489z" style="" fill="#fdbc69" data-original="#fdbc69"></path><path d="M270.2 276.01v127.039c0 13.928-11.295 25.224-25.224 25.224H66.654c-25.673-28.181-45.129-62.119-56.205-99.652V276.01c0-13.928 11.295-25.224 25.224-25.224h209.303c13.929 0 25.224 11.295 25.224 25.224z" style="" fill="#b5423c" data-original="#b5423c" class=""></path><path d="M69.366 331.562c-4.962-2.006-7.137-3.142-7.137-5.594 0-2.542 2.059-3.832 6.121-3.832 3.105 0 4.774.858 6.115 1.547.968.497 1.969 1.012 3.181 1.012 3.434 0 5.261-3.564 5.261-6.137 0-6.947-13.066-7.147-14.556-7.147-8.632 0-17.856 4.001-17.856 15.229 0 10.221 7.538 13.401 13.594 15.956 5.298 2.235 8.295 3.684 8.295 7.483 0 4.001-3.366 4.841-6.189 4.841-3.878 0-5.715-1.665-7.336-3.133-1.188-1.075-2.415-2.188-4.181-2.188-3.039 0-5.396 3.299-5.396 6.137 0 4.845 7.056 10.245 17.182 10.245 10.889 0 17.654-6.377 17.654-16.643 0-11.811-8.526-15.259-14.752-17.776zM121.917 315.204c-.81-2.426-3.463-3.996-6.759-3.996-3.256 0-5.883 1.568-6.71 4.048l-13.385 43.593c-.185.555-.185 1.042-.185 1.332 0 3.147 3.487 5.261 6.743 5.261 3.356 0 4.395-2.164 4.699-3.142l2.283-7.904h13.179l2.296 7.952c.605 1.937 2.331 3.094 4.618 3.094 3.289 0 6.811-2.114 6.811-5.261 0-.575-.152-1.03-.235-1.277l-13.355-43.7zm-10.432 28.873 3.672-12.594 3.672 12.594h-7.344zM175.299 354.516h-15.214v-38.315c0-2.744-2.358-4.588-5.868-4.588-3.454 0-5.867 1.887-5.867 4.588v44.588c0 2.654 2.349 4.655 5.464 4.655h21.485c2.538 0 4.453-2.349 4.453-5.464 0-3.166-1.873-5.464-4.453-5.464zM222.038 354.516h-17.706v-10.895h8.074c3.024 0 4.655-2.607 4.655-5.059 0-2.961-2.002-5.194-4.655-5.194h-8.074V322.54h17.706c2.697 0 4.655-2.326 4.655-5.531 0-3.126-1.958-5.396-4.655-5.396H198.06c-3.115 0-5.464 2.001-5.464 4.655v44.52c0 2.654 2.349 4.655 5.464 4.655h23.977c2.697 0 4.655-2.27 4.655-5.396.001-3.205-1.956-5.531-4.654-5.531z" style="" fill="#ffffff" data-original="#ffffff"></path></g></svg>