<svg xmlns="http://www.w3.org/2000/svg" version="1.1" xmlns:xlink="http://www.w3.org/1999/xlink" width="512" height="512" x="0" y="0" viewBox="0 0 500 500" style="enable-background:new 0 0 512 512" xml:space="preserve" class=""><g><g fill-rule="evenodd" clip-rule="evenodd"><path fill="#ffe177" d="M412.929 223.143v231.418H82.944V213.282l164.989-141.93 164.996 141.929c4.359 7.419 6.298 6.104 0 9.862z" opacity="1" data-original="#ffe177" class=""></path><path fill="#fa6e85" d="M235.011 110.484 78.578 244.624c-8.302 7.119-20.88 6.154-27.999-2.148l-3.405-3.971c-7.119-8.302-6.154-20.88 2.148-27.999L235.011 51.279c7.493-6.425 18.358-6.425 25.851 0l185.689 159.226c8.302 7.12 9.267 19.697 2.148 27.999l-3.405 3.971c-7.12 8.302-19.697 9.267-28 2.148l-156.433-134.14c-7.492-6.424-18.357-6.424-25.85.001zM195.304 349.297h105.264v105.264H195.304z" opacity="1" data-original="#fa6e85"></path><path fill="#19cfba" d="M245.218 155.442c16.966-.106 30.822 11.314 30.949 25.508.062 6.951-1.789 10.581-4.077 13.093-7.042 7.732-3.014 18.866 7.972 22.033 6.511 1.877 12.39 4.608 13.55 9.104 3.538 13.714-26.731 22.509-26.496 39.767.235 17.169 21.492 18.355 23.935 35.222 1.263 8.723-27.816 71.077-44.048 71.178-15.734.098-46.138-61.879-45.03-70.622 2.142-16.895 23.376-18.346 23.304-35.516-.073-17.259-30.496-25.675-27.203-39.432 1.08-4.51 6.91-7.313 13.386-9.272 10.928-3.305 14.756-14.487 7.578-22.131-2.333-2.483-4.248-6.09-4.31-13.041-.127-14.193 13.524-25.785 30.49-25.891z" opacity="1" data-original="#19cfba"></path><ellipse cx="274.546" cy="343.041" fill="#e6e6e6" rx="70.486" ry="59.209" opacity="1" data-original="#e6e6e6"></ellipse><path fill="#19cfba" d="M138.397 252.242c21.004 1.599 42.245 14.987 54.967 37.024 12.723 22.036 13.697 47.126 4.58 66.115-21.004-1.599-42.245-14.987-54.967-37.024-12.724-22.036-13.697-47.125-4.58-66.115z" opacity="1" data-original="#19cfba"></path><path fill="#60b7fe" d="M359.34 343.041c-5.495 24.278-17.11 45.814-32.893 62.416-11.985 12.608-26.957 19.031-44.352 19.031h-68.732c-17.395 0-32.367-6.424-44.352-19.031-15.783-16.602-27.398-38.138-32.893-62.416z" opacity="1" data-original="#60b7fe"></path><path fill="#fa6e85" d="M359.34 343.041a138.66 138.66 0 0 1-8.595 25.881H144.713a138.563 138.563 0 0 1-8.595-25.881z" opacity="1" data-original="#fa6e85"></path><path fill="#1e2f3f" d="M311.743 321.171v2.367c0 3.736-3.031 6.765-6.77 6.765s-6.77-3.03-6.77-6.765v-2.367c0-3.746 3.031-6.771 6.77-6.771s6.77 3.025 6.77 6.771zm-60.759 0v2.367a6.768 6.768 0 0 1-6.77 6.765 6.768 6.768 0 0 1-6.768-6.765v-2.367a6.766 6.766 0 0 1 6.768-6.771 6.766 6.766 0 0 1 6.77 6.771zm30.379-7.683v2.373a6.77 6.77 0 1 1-13.538 0v-2.373a6.773 6.773 0 0 1 6.77-6.771 6.774 6.774 0 0 1 6.768 6.771zm-67.952 117.264h68.732c4.026 0 7.924-.326 11.706-.939v17.473h-91.727v-17.397c3.652.565 7.412.863 11.289.863zm126.467-55.572c-5.05 9.181-11.178 17.63-18.289 25.101-10.677 11.24-23.947 16.935-39.445 16.935h-68.732c-15.498 0-28.768-5.696-39.445-16.935-7.112-7.471-13.239-15.92-18.289-25.101zm-149.095-25.878h159.85c-1.014 3.465-2.898 9.021-4.316 12.342H149.238c-1.379-3.174-3.331-8.999-4.317-12.342zm83.812-59.205c-32.345 0-59.12 19.943-63.168 45.669h126.337c-4.05-25.726-30.825-45.669-63.169-45.669zm-65.826 10.74c1.83-12.7 23.413-15.445 23.326-36.167-.051-11.88-9.746-19.927-17.536-26.393-4.679-3.888-10.503-8.72-9.865-11.397.009-.022.944-2.036 8.773-4.409 15.704-4.752 21.212-21.865 10.554-33.24-.787-.842-2.422-2.574-2.475-8.465-.049-5.386 2.721-9.344 5.054-11.717 4.599-4.671 11.504-7.346 18.902-7.346 13.128 0 23.852 8.4 23.943 18.803.053 5.875-1.544 7.634-2.312 8.476-10.454 11.463-4.685 28.542 11.101 33.094 7.902 2.275 8.868 4.289 8.87 4.289.695 2.698-5.029 7.591-9.632 11.527-7.68 6.57-17.239 14.747-17.078 26.643.07 5.164 1.544 9.252 3.695 12.646a87.818 87.818 0 0 0-10.643 1.911l.278-80.761a6.768 6.768 0 0 0-6.77-6.793 6.772 6.772 0 0 0-6.768 6.744l-.295 85.332c-12.026 5.191-22.259 12.971-29.675 22.5-1.01-2.926-1.386-4.62-1.447-5.277zm-59.881 13.629c-10.223-17.712-12.458-38.48-6.206-55.393 33.567 5.743 58.723 42.284 53.983 76.694h-1.985l-26.63-45.637c-1.886-3.231-6.03-4.311-9.26-2.438a6.778 6.778 0 0 0-2.435 9.263l22.648 38.811h-11.498c-7.376-5.636-13.794-12.944-18.617-21.3zm-59.126-70.982v203.802h98.822v-21.029c-9.042-3.502-17.214-9.051-24.432-16.642-17.225-18.117-29.07-41.195-34.588-65.59-.883-3.905 1.87-7.778 5.837-8.215l12.272-.043a87.765 87.765 0 0 1-10.51-14.535c-13.336-23.092-15.182-50.848-4.821-72.426a6.768 6.768 0 0 1 6.618-3.822c24.74 1.912 47.965 18.069 61.27 42.134 7.319-9.987 18.365-12.931 18.325-22.381-.023-5.565-6.439-10.892-12.645-16.039-7.96-6.613-16.98-14.101-14.372-25.004 2.021-8.432 11.247-12.13 18.011-14.172 2.208-.668 5.058-2.101 6.104-5.163 2.297-6.711-7.488-5.725-7.646-23.467-.171-19.128 17.952-32.663 37.216-32.73 20.738-.072 37.602 14.331 37.762 32.225.068 7.623-1.788 13.259-5.844 17.712-4.185 4.599-.23 9.504 4.845 10.973 6.789 1.949 16.066 5.522 18.229 13.905 4.918 19.062-26.46 28.515-26.283 41.379.072 5.24 3.167 8.128 8.637 12.553 36.26 3.187 65.162 27.881 68.876 58.858h7.943c4.312 0 7.554 4.052 6.602 8.258-5.517 24.392-17.363 47.472-34.589 65.59-7.105 7.471-15.139 12.961-24.016 16.479v21.192h98.822V243.484L256.503 115.111a13.034 13.034 0 0 0-17.035 0zm-33.997-5.919c4.698 5.467 12.976 6.108 18.454 1.417l156.433-134.139c10.043-8.611 24.62-8.611 34.663 0L421.75 238.982c5.476 4.691 13.754 4.061 18.452-1.417l3.406-3.975c4.696-5.478 4.061-13.753-1.417-18.455L256.503 55.911c-4.942-4.235-12.094-4.234-17.035 0L53.776 215.136c-2.643 2.264-4.244 5.44-4.513 8.937-.481 6.248 2.877 9.261 6.502 13.492zm410.855 209.72h-46.873V253.507c10.416 4.474 22.976 1.922 30.734-7.135l3.406-3.969c9.555-11.136 8.263-27.979-2.88-37.541L265.316 45.627c-10.041-8.606-24.62-8.606-34.663 0L44.963 204.863c-11.137 9.546-12.421 26.41-2.88 37.541l3.404 3.969c7.705 8.99 20.212 11.651 30.737 7.124v193.79H33.381a6.766 6.766 0 0 0-6.77 6.771 6.77 6.77 0 0 0 6.77 6.771H466.62a6.77 6.77 0 0 0 6.77-6.771 6.767 6.767 0 0 0-6.77-6.773z" opacity="1" data-original="#1e2f3f" class=""></path></g></g></svg>